<?xml version="1.0" encoding="UTF-8"?>
<svg version="1.1" xmlns="http://www.w3.org/2000/svg" width="786" height="324">
<path d="M0 0 C0.72316406 0.52722656 1.44632813 1.05445313 2.19140625 1.59765625 C3.22974609 2.31115234 3.22974609 2.31115234 4.2890625 3.0390625 C12.00911044 8.49813301 17.19093306 15.11367546 21.83203125 23.30078125 C23.14680478 25.62455202 23.14680478 25.62455202 24.80078125 27.70703125 C27.58199413 31.48823078 27.50511422 35.04889072 27.19140625 39.59765625 C26.21756679 41.2797426 25.21445573 42.94503786 24.19140625 44.59765625 C23.86012843 46.00558696 23.57254131 47.42413641 23.31640625 48.84765625 C21.17182024 59.22745252 14.1519319 68.16522714 5.73828125 74.421875 C3.27525663 75.95932905 0.79093005 77.30601786 -1.80859375 78.59765625 C-2.53046875 78.98695313 -3.25234375 79.37625 -3.99609375 79.77734375 C-10.47117805 82.85750538 -17.03668925 83.29016207 -24.12084961 83.47558594 C-28.76056629 83.70887829 -28.76056629 83.70887829 -32.49365234 86.23193359 C-34.06928449 88.35775857 -34.06928449 88.35775857 -35.80859375 91.59765625 C-37.12859375 91.26765625 -38.44859375 90.93765625 -39.80859375 90.59765625 C-38.15859375 87.95765625 -36.50859375 85.31765625 -34.80859375 82.59765625 C-36.16984375 82.50484375 -36.16984375 82.50484375 -37.55859375 82.41015625 C-49.16655221 80.69481016 -59.11451543 74.26300638 -66.55859375 65.41015625 C-73.01970683 56.63506314 -77.080898 45.58248026 -75.80859375 34.59765625 C-73.26036227 23.22526321 -68.46934694 11.68649511 -58.80859375 4.59765625 C-40.73078353 -6.6702816 -18.6193692 -13.17927525 0 0 Z M-39.80859375 3.59765625 C-40.79859375 5.08265625 -40.79859375 5.08265625 -41.80859375 6.59765625 C-44.27734375 7.15234375 -44.27734375 7.15234375 -47.30859375 7.47265625 C-53.38547116 8.34497038 -58.75092351 10.02441753 -63.80859375 13.59765625 C-64.13859375 14.58765625 -64.46859375 15.57765625 -64.80859375 16.59765625 C-65.46859375 16.59765625 -66.12859375 16.59765625 -66.80859375 16.59765625 C-69.2575801 22.07186104 -69.08525389 26.85268562 -67.80859375 32.59765625 C-65.04386879 38.12710617 -60.26553298 43.38772752 -54.30859375 45.47265625 C-49.48851673 45.7136601 -44.95344405 45.63118013 -40.18359375 44.91015625 C-35.97423434 44.37777521 -34.4139274 45.37898939 -30.80859375 47.59765625 C-24.63631653 47.49810339 -20.9516632 45.91922193 -15.80859375 42.59765625 C-15.80859375 43.25765625 -15.80859375 43.91765625 -15.80859375 44.59765625 C-14.88046875 44.55640625 -13.95234375 44.51515625 -12.99609375 44.47265625 C-9.80859375 44.59765625 -9.80859375 44.59765625 -6.80859375 46.59765625 C-2.15185657 46.87706048 2.31388926 46.38949826 6.921875 45.80859375 C9.13240285 45.60314021 11.22580796 45.63086122 13.44140625 45.72265625 C17.52320997 45.58659613 19.15233886 45.28940165 22.19140625 42.59765625 C24.36653668 39.41130807 24.36653668 39.41130807 25.19140625 35.59765625 C24.14477805 31.90367436 23.01111552 29.50519152 20.44140625 26.66015625 C17.30463814 25.17890464 14.60950342 25.40045834 11.19140625 25.59765625 C11.02640625 24.85515625 10.86140625 24.11265625 10.69140625 23.34765625 C8.95521134 20.16463224 8.42420552 20.15567337 5.19140625 18.97265625 C3.0078125 18.01171875 3.0078125 18.01171875 1.19140625 16.59765625 C0.37571454 13.87280504 0.11735481 11.24834041 -0.2109375 8.42578125 C-1.23333182 3.58778459 -4.02747105 0.64045321 -7.80859375 -2.40234375 C-18.60249759 -9.01724134 -31.90282853 -5.74552083 -39.80859375 3.59765625 Z M-45.80859375 47.59765625 C-47.62648299 50.55487768 -47.62648299 50.55487768 -48.68359375 54.16015625 C-49.09351563 55.35769531 -49.5034375 56.55523437 -49.92578125 57.7890625 C-50.21710937 58.71589844 -50.5084375 59.64273438 -50.80859375 60.59765625 C-43.08437326 59.93508203 -35.46059072 58.83300999 -27.80859375 57.59765625 C-28.31390625 58.44070312 -28.81921875 59.28375 -29.33984375 60.15234375 C-29.98953125 61.24804688 -30.63921875 62.34375 -31.30859375 63.47265625 C-31.95828125 64.56320313 -32.60796875 65.65375 -33.27734375 66.77734375 C-34.96764228 69.35573297 -34.96764228 69.35573297 -34.80859375 71.59765625 C-31.50859375 70.60765625 -28.20859375 69.61765625 -24.80859375 68.59765625 C-24.70546875 67.50453125 -24.60234375 66.41140625 -24.49609375 65.28515625 C-23.83963715 59.90800441 -22.32500175 54.78586977 -20.80859375 49.59765625 C-22.39216834 49.90893141 -23.97544368 50.22172914 -25.55859375 50.53515625 C-26.4403125 50.70917969 -27.32203125 50.88320312 -28.23046875 51.0625 C-30.44094428 51.52134113 -32.62371443 52.03101699 -34.80859375 52.59765625 C-35.13859375 50.94765625 -35.46859375 49.29765625 -35.80859375 47.59765625 C-39.42785455 46.3448352 -42.15323445 46.46713276 -45.80859375 47.59765625 Z " fill="#FEFEFE" transform="translate(706.80859375,161.40234375)"/>
<path d="M0 0 C0.77730469 0.54914063 1.55460937 1.09828125 2.35546875 1.6640625 C9.67874843 7.03692096 14.25020716 13.48824672 18.8984375 21.1953125 C19.81021646 22.68907803 20.80190765 24.1337315 21.8125 25.5625 C23.43899865 28.9011025 23.39995291 31.33376496 23 35 C22.53464844 35.60199219 22.06929688 36.20398438 21.58984375 36.82421875 C19.60887655 39.53527215 19.02893195 42.00722115 18.1875 45.25 C16.38950815 51.28371049 14.33099234 55.45432485 10 60 C9.278125 60.76183594 8.55625 61.52367187 7.8125 62.30859375 C-1.04414778 70.95234134 -12.40817872 75.81629891 -24.85546875 76.0546875 C-30.40145028 76.03610272 -30.40145028 76.03610272 -34.921875 78.83984375 C-36.5206469 81.01753453 -36.5206469 81.01753453 -37.78125 83.28515625 C-38.38453125 84.13400391 -38.38453125 84.13400391 -39 85 C-39.99 85 -40.98 85 -42 85 C-40.66306612 81.40056264 -39.00519395 78.26874082 -37 75 C-37.73863281 74.85304688 -38.47726563 74.70609375 -39.23828125 74.5546875 C-50.68085697 72.02481688 -60.7284094 67.49921135 -68 58 C-74.31231717 47.69503679 -77.4644509 37.99798463 -75 26 C-71.40200699 14.02736809 -64.81008401 4.83271912 -53.9921875 -1.53515625 C-48.84272605 -4.0561067 -43.55146837 -5.62251595 -38 -7 C-37.11054687 -7.22558594 -36.22109375 -7.45117188 -35.3046875 -7.68359375 C-21.40737704 -10.8420734 -11.3766682 -8.37039837 0 0 Z M-41 1 C-41.99 2.485 -41.99 2.485 -43 4 C-45.46875 4.5546875 -45.46875 4.5546875 -48.5 4.875 C-56.07762643 5.98614234 -62.3211894 8.12984579 -67.625 13.8125 C-69.64749296 18.50100642 -69.86230167 22.28553557 -68.33984375 27.078125 C-66.05781197 32.25468194 -62.68624453 35.85771539 -58 39 C-54.80874596 40.06375135 -52.47529029 40.13335484 -49.125 40.125 C-48.09632812 40.12757813 -47.06765625 40.13015625 -46.0078125 40.1328125 C-43.02269156 40.08688219 -43.02269156 40.08688219 -40.2578125 39.3984375 C-38 39 -38 39 -35.75 40.5 C-31.79406962 42.65778021 -28.29806975 42.07049303 -24 41 C-23.01 40.34 -22.02 39.68 -21 39 C-18.80859375 38.98828125 -18.80859375 38.98828125 -16.4375 39.3125 C-15.65246094 39.41175781 -14.86742187 39.51101562 -14.05859375 39.61328125 C-12 40 -12 40 -10 41 C-6.12066894 41.12931104 -2.69319422 41.12477496 1.125 40.4375 C4 40 4 40 7 40.5625 C11.61343419 41.23529249 14.58583083 39.96758943 18.375 37.375 C20.29487966 34.56902203 20.63493163 32.35661179 20.4453125 28.96875 C19.64956037 25.45068794 17.8797993 24.02198674 15 22 C13.824375 21.835 12.64875 21.67 11.4375 21.5 C7.03942016 20.8602793 6.64776452 19.39244829 4 16 C0.37526891 14.64164329 0.37526891 14.64164329 -3 14 C-2.9071875 12.205625 -2.9071875 12.205625 -2.8125 10.375 C-2.84293545 4.62269921 -4.67818979 1.32181021 -8.75 -2.75 C-18.94611812 -9.808851 -33.00985064 -8.68502953 -41 1 Z M-48 43 C-49.61792744 45.87264669 -50.53492253 48.73864426 -51 52 C-50.67 52.99 -50.34 53.98 -50 55 C-46.87405648 54.35867797 -43.74942478 53.71117727 -40.625 53.0625 C-39.73554687 52.88009766 -38.84609375 52.69769531 -37.9296875 52.50976562 C-36.65351562 52.24389648 -36.65351562 52.24389648 -35.3515625 51.97265625 C-34.56604004 51.81031494 -33.78051758 51.64797363 -32.97119141 51.48071289 C-30.94039254 51.06293278 -30.94039254 51.06293278 -29 50 C-31.64 54.62 -34.28 59.24 -37 64 C-36.34 64.33 -35.68 64.66 -35 65 C-31.76996004 63.92332001 -30.33823604 63.3642743 -28 61 C-25.54344212 55.48876579 -24 50.04116326 -24 44 C-30.93 45.485 -30.93 45.485 -38 47 C-37.34 45.68 -36.68 44.36 -36 43 C-40.52355758 40.53260496 -43.39795286 40.69897643 -48 43 Z " fill="#FEFEFE" transform="translate(120,168)"/>
<path d="M0 0 C3.63 0 7.26 0 11 0 C11 14.19 11 28.38 11 43 C13.31 43 15.62 43 18 43 C18.495 43.495 18.495 43.495 19 44 C19.21934204 42.05395874 19.21934204 42.05395874 19.44311523 40.06860352 C19.98479293 35.27301454 20.53216669 30.47809023 21.08129883 25.68334961 C21.3185416 23.60475167 21.55422179 21.52597479 21.78833008 19.44702148 C22.1243459 16.46550269 22.46590491 13.48466446 22.80859375 10.50390625 C22.91280136 9.56849503 23.01700897 8.6330838 23.12437439 7.66932678 C23.22440262 6.80850998 23.32443085 5.94769318 23.42749023 5.06079102 C23.51409409 4.29912125 23.60069794 3.53745148 23.68992615 2.75270081 C24 1 24 1 25 0 C27.86267567 -0.07325168 30.700719 -0.09238205 33.5625 -0.0625 C34.36880859 -0.05798828 35.17511719 -0.05347656 36.00585938 -0.04882812 C38.00393756 -0.03700518 40.00197783 -0.01906914 42 0 C43.75761434 12.18346303 45.48493949 24.37122258 47.1875 36.5625 C47.45578613 38.46165161 47.45578613 38.46165161 47.72949219 40.39916992 C47.97747559 42.1835144 47.97747559 42.1835144 48.23046875 44.00390625 C48.37895264 45.06424072 48.52743652 46.1245752 48.68041992 47.21704102 C49 50 49 50 49 54 C44.71 54 40.42 54 36 54 C36 51.03 36 48.06 36 45 C34.35 45 32.7 45 31 45 C31 47.97 31 50.94 31 54 C20.77 54 10.54 54 0 54 C0 36.18 0 18.36 0 0 Z M33 22 C32.67 26.29 32.34 30.58 32 35 C32.99 35 33.98 35 35 35 C35.07654536 30.48382401 35.10228696 26.40914783 34 22 C33.67 22 33.34 22 33 22 Z " fill="#FEFEFE" transform="translate(236,158)"/>
<path d="M0 0 C5.28 0 10.56 0 16 0 C16.66 4.95 17.32 9.9 18 15 C18.309375 12.89625 18.61875 10.7925 18.9375 8.625 C19.875 2.25 19.875 2.25 21 0 C25.62 0 30.24 0 35 0 C35 17.82 35 35.64 35 54 C31.7 54 28.4 54 25 54 C24.505 47.565 24.505 47.565 24 41 C22.35696827 42.64303173 22.68137147 44.68007295 22.5 46.9375 C22.10977702 51.78044597 22.10977702 51.78044597 21 54 C18.69 54 16.38 54 14 54 C13.34 49.71 12.68 45.42 12 41 C11.34 45.29 10.68 49.58 10 54 C6.7 54 3.4 54 0 54 C0 36.18 0 18.36 0 0 Z " fill="#FEFEFE" transform="translate(286,158)"/>
<path d="M0 0 C2.97 0 5.94 0 9 0 C10.9539022 5.68407912 12.53223414 11.12893655 14 17 C14.33 11.39 14.66 5.78 15 0 C18.3 0 21.6 0 25 0 C25 17.82 25 35.64 25 54 C21.7 54 18.4 54 15 54 C13.22637492 49.05918728 12.08733452 44.12600561 11 39 C10.67 43.95 10.34 48.9 10 54 C6.7 54 3.4 54 0 54 C0 36.18 0 18.36 0 0 Z " fill="#FFFFFF" transform="translate(504,158)"/>
<path d="M0 0 C6.27 0 12.54 0 19 0 C24.66128414 5.66128414 25.19395118 6.97655514 25.25 14.375 C25.270625 15.04789063 25.29125 15.72078125 25.3125 16.4140625 C25.34534737 20.58567794 24.94667952 22.97577629 22 26 C22.48895752 26.54366211 22.97791504 27.08732422 23.48168945 27.64746094 C25.35535412 30.55060176 25.34771428 32.20990521 25.29296875 35.640625 C25.28330078 36.71054688 25.27363281 37.78046875 25.26367188 38.8828125 C25.23853516 39.99398437 25.21339844 41.10515625 25.1875 42.25 C25.16719727 43.93996094 25.16719727 43.93996094 25.14648438 45.6640625 C25.11116001 48.44291281 25.05735401 51.22151707 25 54 C21.37 54 17.74 54 14 54 C13.67 46.08 13.34 38.16 13 30 C12.34 30 11.68 30 11 30 C11 37.92 11 45.84 11 54 C7.37 54 3.74 54 0 54 C0 36.18 0 18.36 0 0 Z M11 10 C11 13.63 11 17.26 11 21 C11.66 21 12.32 21 13 21 C14.49297212 18.01405576 14.11755228 15.29146376 14 12 C13.67 11.34 13.34 10.68 13 10 C12.34 10 11.68 10 11 10 Z " fill="#FFFFFF" transform="translate(444,158)"/>
<path d="M0 0 C3.50800145 1.34348992 4.62612159 2.39997352 6.60400391 5.57421875 C8.32182506 9.78976027 8.43341216 13.18707877 8.3984375 17.6875 C8.40130768 18.50822998 8.40417786 19.32895996 8.40713501 20.17456055 C8.40916823 21.90251357 8.40369044 23.63048999 8.39111328 25.35839844 C8.37504841 27.9920637 8.39098658 30.62419454 8.41015625 33.2578125 C8.40817369 34.9427117 8.40432974 36.62760994 8.3984375 38.3125 C8.40754654 39.48462036 8.40754654 39.48462036 8.4168396 40.68041992 C8.34023686 46.68268084 6.96810075 50.80035799 2.875 55.375 C-1.1439725 57.64659315 -4.48732639 57.92160236 -9 57 C-12.24404427 55.32299406 -14.40771309 53.11323537 -16.13916016 49.85888672 C-17.2848864 46.05387983 -17.32474976 42.38344738 -17.3359375 38.4453125 C-17.3459227 37.21565262 -17.3459227 37.21565262 -17.35610962 35.96115112 C-17.36620777 34.2314477 -17.37092752 32.50170553 -17.37060547 30.77197266 C-17.37497461 28.14029026 -17.41131104 25.51029186 -17.44921875 22.87890625 C-17.45508854 21.19271403 -17.45905685 19.50651389 -17.4609375 17.8203125 C-17.47530853 17.04092316 -17.48967957 16.26153381 -17.50448608 15.45852661 C-17.45822196 9.86374833 -16.22830677 6.59674081 -13 2 C-8.73755081 -0.8416328 -5.00032912 -0.50403317 0 0 Z M-5 10 C-6.96741628 11.96741628 -6.16388207 15.77567731 -6.16796875 18.46484375 C-6.17129715 19.21335098 -6.17462555 19.96185822 -6.17805481 20.73304749 C-6.18312693 22.31933984 -6.18546305 23.9056429 -6.18530273 25.49194336 C-6.18748773 27.92384369 -6.20563581 30.35528949 -6.22460938 32.78710938 C-6.22754349 34.32551928 -6.22952817 35.86393134 -6.23046875 37.40234375 C-6.23765427 38.13259262 -6.24483978 38.86284149 -6.25224304 39.61521912 C-6.36709434 43.76269993 -6.36709434 43.76269993 -4 47 C-2.46702703 43.93405406 -2.87868545 40.72888147 -2.90234375 37.3671875 C-2.9037587 36.61535187 -2.90517365 35.86351624 -2.90663147 35.08889771 C-2.91223535 32.6842249 -2.92478843 30.27964473 -2.9375 27.875 C-2.9425145 26.24609509 -2.9470775 24.61718873 -2.95117188 22.98828125 C-2.96220603 18.99215173 -2.97947321 14.99609158 -3 11 C-3.66 10.67 -4.32 10.34 -5 10 Z " fill="#FEFEFE" transform="translate(491,157)"/>
<path d="M0 0 C2.7607231 2.49355635 3.83047653 4.56911395 4.16796875 8.29296875 C4.14669922 9.60201172 4.14669922 9.60201172 4.125 10.9375 C4.11855469 11.81792969 4.11210937 12.69835937 4.10546875 13.60546875 C3.9375 15.75 3.9375 15.75 2.9375 16.75 C1.25141034 16.82205511 -0.43750659 16.83386068 -2.125 16.8125 C-3.04410156 16.80347656 -3.96320313 16.79445312 -4.91015625 16.78515625 C-5.62042969 16.77355469 -6.33070313 16.76195312 -7.0625 16.75 C-7.7225 14.44 -8.3825 12.13 -9.0625 9.75 C-9.18546133 12.63959121 -9.14596771 14.10904746 -8.0625 16.75 C-5.68614425 19.20273862 -3.18086619 21.3177703 -0.5078125 23.44140625 C3.4289472 27.15805958 4.78796024 30.28245786 5.3359375 35.66015625 C5.34380924 37.0442705 5.33575952 38.42855881 5.3125 39.8125 C5.32410156 40.50666016 5.33570313 41.20082031 5.34765625 41.91601562 C5.32222847 46.37859188 4.63637553 49.19089893 1.9375 52.75 C-1.90373193 56.12562806 -5.70257028 56.26282556 -10.62109375 56.1015625 C-14.27774323 55.57500498 -16.37445958 54.23643739 -19.0625 51.75 C-21.13467142 47.7466212 -21.27773405 44.4040854 -21.1875 39.9375 C-21.16945313 38.77605469 -21.15140625 37.61460937 -21.1328125 36.41796875 C-21.10960937 35.53753906 -21.08640625 34.65710938 -21.0625 33.75 C-16.1125 33.255 -16.1125 33.255 -11.0625 32.75 C-12.34125 31.698125 -13.62 30.64625 -14.9375 29.5625 C-18.21228442 26.86872572 -19.90787553 24.86187692 -21.0625 20.75 C-21.3984375 17.19140625 -21.3984375 17.19140625 -21.4375 13.3125 C-21.46585937 12.03503906 -21.49421875 10.75757813 -21.5234375 9.44140625 C-20.98929478 5.16373783 -19.80868001 3.0364934 -17.0625 -0.25 C-11.57866488 -2.07794504 -5.36753079 -2.1908289 0 0 Z M-10.0625 33.75 C-10.0625 37.38 -10.0625 41.01 -10.0625 44.75 C-9.0725 44.75 -8.0825 44.75 -7.0625 44.75 C-6.12499284 41.08519927 -5.77581156 39.34943946 -7.4375 35.875 C-8.241875 34.823125 -8.241875 34.823125 -9.0625 33.75 C-9.3925 33.75 -9.7225 33.75 -10.0625 33.75 Z " fill="#FEFEFE" transform="translate(374.0625,158.25)"/>
<path d="M0 0 C2.7607231 2.49355635 3.83047653 4.56911395 4.16796875 8.29296875 C4.14669922 9.60201172 4.14669922 9.60201172 4.125 10.9375 C4.11855469 11.81792969 4.11210938 12.69835937 4.10546875 13.60546875 C3.9375 15.75 3.9375 15.75 2.9375 16.75 C1.25141034 16.82205511 -0.43750659 16.83386068 -2.125 16.8125 C-3.04410156 16.80347656 -3.96320312 16.79445312 -4.91015625 16.78515625 C-5.62042969 16.77355469 -6.33070313 16.76195312 -7.0625 16.75 C-7.3925 14.44 -7.7225 12.13 -8.0625 9.75 C-8.3925 9.75 -8.7225 9.75 -9.0625 9.75 C-8.84530896 14.06203684 -8.56863403 16.18943422 -5.62890625 19.4453125 C-4.63761719 20.24710938 -3.64632812 21.04890625 -2.625 21.875 C3.77875079 27.10152933 3.77875079 27.10152933 4.9375 31.75 C5.15162107 34.46405413 5.26249918 37.04017735 5.25 39.75 C5.26611328 40.44867188 5.28222656 41.14734375 5.29882812 41.8671875 C5.30306872 46.3622193 4.66604476 49.16712933 1.9375 52.75 C-1.84421795 56.07332789 -5.68567335 56.37308726 -10.55078125 56.2421875 C-14.72771636 55.42369011 -17.45158238 53.03161205 -20.0625 49.75 C-21.20327657 46.32767028 -21.16065117 43.66326783 -21.125 40.0625 C-21.11597656 38.88300781 -21.10695313 37.70351562 -21.09765625 36.48828125 C-21.08605469 35.58464844 -21.07445312 34.68101562 -21.0625 33.75 C-17.4325 33.75 -13.8025 33.75 -10.0625 33.75 C-9.7325 37.71 -9.4025 41.67 -9.0625 45.75 C-8.4025 45.75 -7.7425 45.75 -7.0625 45.75 C-6.64903715 38.71194848 -6.64903715 38.71194848 -10.0625 32.75 C-12.04093645 31.24556395 -14.0405606 29.8267523 -16.125 28.47265625 C-19.77157563 25.2304388 -20.94436567 21.84447985 -21.4609375 17.05859375 C-21.44933594 15.14240234 -21.44933594 15.14240234 -21.4375 13.1875 C-21.44523438 11.90746094 -21.45296875 10.62742188 -21.4609375 9.30859375 C-21.04006232 5.54960074 -20.40845622 3.68509907 -18.0625 0.75 C-13.0129322 -2.7836299 -5.4786152 -2.23616947 0 0 Z " fill="#FEFEFE" transform="translate(554.0625,158.25)"/>
<path d="M0 0 C18 0 18 0 23 4 C24.42630596 8.27891789 24.3048437 12.39137463 24.375 16.875 C24.41238281 17.77347656 24.44976562 18.67195313 24.48828125 19.59765625 C24.54695482 24.0112125 24.41808598 26.35269313 21.9765625 30.1328125 C19 32 19 32 11 32 C11 39.26 11 46.52 11 54 C7.37 54 3.74 54 0 54 C0 36.18 0 18.36 0 0 Z M11 10 C11 13.96 11 17.92 11 22 C11.99 21.67 12.98 21.34 14 21 C14.0270043 19.54176788 14.04639787 18.08339325 14.0625 16.625 C14.07410156 15.81289062 14.08570313 15.00078125 14.09765625 14.1640625 C14.14466334 11.95062858 14.14466334 11.95062858 13 10 C12.34 10 11.68 10 11 10 Z " fill="#FFFFFF" transform="translate(326,158)"/>
<path d="M0 0 C8.25 0 16.5 0 25 0 C25 3.63 25 7.26 25 11 C22.69 11 20.38 11 18 11 C18 25.19 18 39.38 18 54 C14.04 54 10.08 54 6 54 C6 39.81 6 25.62 6 11 C4.02 11 2.04 11 0 11 C0 7.37 0 3.74 0 0 Z " fill="#FFFFFF" transform="translate(416,158)"/>
<path d="M0 0 C3.96 0 7.92 0 12 0 C12 14.19 12 28.38 12 43 C14.31 43 16.62 43 19 43 C19 46.63 19 50.26 19 54 C12.73 54 6.46 54 0 54 C0 36.18 0 18.36 0 0 Z " fill="#FFFFFF" transform="translate(214,158)"/>
<path d="M0 0 C3.96 0 7.92 0 12 0 C12 17.82 12 35.64 12 54 C8.04 54 4.08 54 0 54 C0 36.18 0 18.36 0 0 Z " fill="#FFFFFF" transform="translate(392,158)"/>
<path d="M0 0 C0.99 0 1.98 0 3 0 C3 5.61 3 11.22 3 17 C-1.33044541 17.86608908 -3.00607628 18.18738273 -7 17 C-9 15 -9 15 -9.3125 11.5625 C-9 8 -9 8 -7.8125 6.0625 C-5.43958382 4.67148017 -3.70313576 4.78082683 -1 5 C-0.67 3.35 -0.34 1.7 0 0 Z M-4 8 C-5.10836423 9.88316159 -5.10836423 9.88316159 -6 12 C-5.67 12.66 -5.34 13.32 -5 14 C-3.02463255 13.65213292 -3.02463255 13.65213292 -1 13 C-0.67 12.34 -0.34 11.68 0 11 C-0.66 10.01 -1.32 9.02 -2 8 C-2.66 8 -3.32 8 -4 8 Z " fill="#FDFDFD" transform="translate(269,223)"/>
<path d="M0 0 C0.99 0 1.98 0 3 0 C3 5.61 3 11.22 3 17 C-3.18556701 18.2371134 -3.18556701 18.2371134 -7 17 C-9.31282587 13.53076119 -9.42478586 12.07794425 -9 8 C-7.8125 6.125 -7.8125 6.125 -6 5 C-3.3125 4.8125 -3.3125 4.8125 -1 5 C-0.67 3.35 -0.34 1.7 0 0 Z M-4 8 C-4.66 9.32 -5.32 10.64 -6 12 C-5.34 12.66 -4.68 13.32 -4 14 C-3.01 14 -2.02 14 -1 14 C-0.67 13.01 -0.34 12.02 0 11 C-0.66 10.01 -1.32 9.02 -2 8 C-2.66 8 -3.32 8 -4 8 Z " fill="#FEFEFE" transform="translate(313,223)"/>
<path d="M0 0 C1.9375 1 1.9375 1 3 3 C3.41424452 5.85303618 3.27949062 8.06534844 3 11 C-0.48868651 13.32579101 -1.89718519 13.41865457 -6 13 C-8.375 11.9375 -8.375 11.9375 -10 10 C-10.43060657 6.55514741 -10.63335287 4.15493758 -8.9375 1.0625 C-5.88023824 -0.6140629 -3.4093712 -0.36528977 0 0 Z M-5 3 C-5.33 3.66 -5.66 4.32 -6 5 C-4.35 5 -2.7 5 -1 5 C-1.33 4.34 -1.66 3.68 -2 3 C-2.99 3 -3.98 3 -5 3 Z M-6 8 C-6 8.33 -6 8.66 -6 9 C-3.69 9 -1.38 9 1 9 C1 8.67 1 8.34 1 8 C-1.31 8 -3.62 8 -6 8 Z " fill="#FEFEFE" transform="translate(500,228)"/>
<path d="M0 0 C0.99 0 1.98 0 3 0 C3 5.61 3 11.22 3 17 C-3.18556701 18.2371134 -3.18556701 18.2371134 -7 17 C-9 14 -9 14 -8.75 10.4375 C-8 7 -8 7 -6 5 C-3.375 4.875 -3.375 4.875 -1 5 C-0.67 3.35 -0.34 1.7 0 0 Z M-4 8 C-4.33 9.65 -4.66 11.3 -5 13 C-3.68 13.33 -2.36 13.66 -1 14 C-0.67 12.68 -0.34 11.36 0 10 C-1.32 9.34 -2.64 8.68 -4 8 Z " fill="#FEFEFE" transform="translate(420,223)"/>
<path d="M0 0 C1.9375 1 1.9375 1 3 3 C3.41424452 5.85303618 3.27949062 8.06534844 3 11 C0 13 0 13 -3.5 12.8125 C-7 12 -7 12 -8.9375 10.8125 C-10.5339636 8.08912093 -10.38630872 6.09046979 -10 3 C-7.72054654 -1.02256493 -4.21158603 -0.45124136 0 0 Z M-5 3 C-5.33 3.66 -5.66 4.32 -6 5 C-4.02 5 -2.04 5 0 5 C-0.66 4.34 -1.32 3.68 -2 3 C-2.99 3 -3.98 3 -5 3 Z M-6 8 C-6 8.33 -6 8.66 -6 9 C-3.69 9 -1.38 9 1 9 C1 8.67 1 8.34 1 8 C-1.31 8 -3.62 8 -6 8 Z " fill="#FEFEFE" transform="translate(401,228)"/>
<path d="M0 0 C1.67578125 1.23046875 1.67578125 1.23046875 3 3 C3.29296875 5.26171875 3.29296875 5.26171875 3.1875 7.6875 C3.16042969 8.49574219 3.13335937 9.30398437 3.10546875 10.13671875 C3.07066406 10.75160156 3.03585937 11.36648437 3 12 C0.19084526 13.40457737 -1.88810534 13.24895157 -5 13 C-7.375 11.9375 -7.375 11.9375 -9 10 C-9.43386742 6.52906068 -9.66235303 4.14071911 -7.875 1.0625 C-5.11019567 -0.50422245 -3.11811483 -0.38976435 0 0 Z M-5 3 C-5.33 3.66 -5.66 4.32 -6 5 C-4.02 5 -2.04 5 0 5 C-0.33 4.34 -0.66 3.68 -1 3 C-2.32 3 -3.64 3 -5 3 Z M-5 8 C-5 8.33 -5 8.66 -5 9 C-2.69 9 -0.38 9 2 9 C2 8.67 2 8.34 2 8 C-0.31 8 -2.62 8 -5 8 Z " fill="#FEFEFE" transform="translate(434,228)"/>
<path d="M0 0 C2.38460953 2.07691798 2.8959746 3.40556916 3.4375 6.5 C3 9 3 9 1.4375 11.375 C-1 13 -1 13 -4.625 12.875 C-8 12 -8 12 -10 10 C-10.54587156 3.99541284 -10.54587156 3.99541284 -8.9375 1.0625 C-5.84506242 -0.63335287 -3.44485259 -0.43060657 0 0 Z M-5 3 C-6.10836423 4.88316159 -6.10836423 4.88316159 -7 7 C-6.67 7.66 -6.34 8.32 -6 9 C-4.35 8.67 -2.7 8.34 -1 8 C-1.33 6.35 -1.66 4.7 -2 3 C-2.99 3 -3.98 3 -5 3 Z " fill="#FEFEFE" transform="translate(375,228)"/>
<path d="M0 0 C3.5625 0.3125 3.5625 0.3125 5.5 1.375 C7.19585287 4.46743758 6.99310657 6.86764741 6.5625 10.3125 C4.48558202 12.69710953 3.15693084 13.2084746 0.0625 13.75 C-2.4375 13.3125 -2.4375 13.3125 -4.8125 11.75 C-6.4375 9.3125 -6.4375 9.3125 -6.3125 5.6875 C-5.14951423 1.20169775 -4.66151968 0.42377452 0 0 Z M-1.4375 3.3125 C-1.7675 4.9625 -2.0975 6.6125 -2.4375 8.3125 C0.0375 8.8075 0.0375 8.8075 2.5625 9.3125 C3.2439823 7.42070797 3.2439823 7.42070797 3.5625 5.3125 C2.9025 4.6525 2.2425 3.9925 1.5625 3.3125 C0.5725 3.3125 -0.4175 3.3125 -1.4375 3.3125 Z " fill="#FFFFFF" transform="translate(323.4375,227.6875)"/>
<path d="M0 0 C4.50374532 -0.36516854 4.50374532 -0.36516854 6.65625 1.21875 C8.39217091 3.51985446 8.31131194 4.83982544 8.1875 7.6875 C8.16042969 8.49574219 8.13335938 9.30398437 8.10546875 10.13671875 C8.07066406 10.75160156 8.03585937 11.36648437 8 12 C4.30458414 12.95024979 1.69541586 12.95024979 -2 12 C-2.625 9.625 -2.625 9.625 -3 7 C-1 5 -1 5 1 4 C0.34 4 -0.32 4 -1 4 C-0.67 2.68 -0.34 1.36 0 0 Z " fill="#FEFEFE" transform="translate(526,228)"/>
<path d="M0 0 C4.50374532 -0.36516854 4.50374532 -0.36516854 6.65625 1.21875 C8.39217091 3.51985446 8.31131194 4.83982544 8.1875 7.6875 C8.16042969 8.49574219 8.13335937 9.30398437 8.10546875 10.13671875 C8.07066406 10.75160156 8.03585937 11.36648437 8 12 C4.30458414 12.95024979 1.69541586 12.95024979 -2 12 C-2.625 9.625 -2.625 9.625 -3 7 C-1 5 -1 5 1 4 C0.34 4 -0.32 4 -1 4 C-0.67 2.68 -0.34 1.36 0 0 Z " fill="#FEFEFE" transform="translate(295,228)"/>
<path d="M0 0 C3.5625 0.3125 3.5625 0.3125 5.5 1.375 C7.19585287 4.46743758 6.99310657 6.86764741 6.5625 10.3125 C4.45422636 12.73311048 3.15904522 13.2252007 0 13.6875 C-2.4375 13.3125 -2.4375 13.3125 -4.25 12.3125 C-6.22337049 8.98892865 -5.74062838 6.13191755 -5.4375 2.3125 C-3.4375 0.3125 -3.4375 0.3125 0 0 Z M-0.4375 3.3125 C-1.0975 3.9725 -1.7575 4.6325 -2.4375 5.3125 C-2.1189823 7.42070797 -2.1189823 7.42070797 -1.4375 9.3125 C0.2125 8.9825 1.8625 8.6525 3.5625 8.3125 C3.29573796 6.32758358 3.29573796 6.32758358 2.5625 4.3125 C1.5725 3.9825 0.5825 3.6525 -0.4375 3.3125 Z " fill="#FEFEFE" transform="translate(230.4375,227.6875)"/>
<path d="M0 0 C3.39471203 -0.37033222 5.88907484 -0.60921702 8.9375 1.0625 C10.63335287 4.15493758 10.43060657 6.55514741 10 10 C7.89172636 12.42061048 6.59654522 12.9127007 3.4375 13.375 C1 13 1 13 -0.8125 11.9375 C-2.65150018 8.93702602 -2.30671285 6.43518387 -2 3 C-1.34 2.01 -0.68 1.02 0 0 Z M3 3 C2.34 3.66 1.68 4.32 1 5 C1.3185177 7.10820797 1.3185177 7.10820797 2 9 C3.65 8.67 5.3 8.34 7 8 C6.73323796 6.01508358 6.73323796 6.01508358 6 4 C5.01 3.67 4.02 3.34 3 3 Z " fill="#FEFEFE" transform="translate(240,228)"/>
<path d="M0 0 C2.875 -0.125 2.875 -0.125 6 0 C8 2 8 2 8.1953125 4.6015625 C8.17210937 5.59929687 8.14890625 6.59703125 8.125 7.625 C8.10695313 8.62789062 8.08890625 9.63078125 8.0703125 10.6640625 C8.03550781 11.82035156 8.03550781 11.82035156 8 13 C7.38382812 12.82339844 6.76765625 12.64679688 6.1328125 12.46484375 C3.99373894 11.8288856 3.99373894 11.8288856 1.875 12.5625 C1.25625 12.706875 0.6375 12.85125 0 13 C-2 11 -2 11 -2.125 8.375 C-2.08375 7.59125 -2.0425 6.8075 -2 6 C-0.02 5.34 1.96 4.68 4 4 C2.35 4 0.7 4 -1 4 C-0.67 2.68 -0.34 1.36 0 0 Z " fill="#FEFEFE" transform="translate(453,228)"/>
<path d="M0 0 C2.875 -0.125 2.875 -0.125 6 0 C8 2 8 2 8.1953125 4.6015625 C8.17210937 5.59929687 8.14890625 6.59703125 8.125 7.625 C8.10695313 8.62789062 8.08890625 9.63078125 8.0703125 10.6640625 C8.03550781 11.82035156 8.03550781 11.82035156 8 13 C1.9453125 13.1953125 1.9453125 13.1953125 0 13 C-2 11 -2 11 -2.125 8.375 C-2.08375 7.59125 -2.0425 6.8075 -2 6 C-0.02 5.34 1.96 4.68 4 4 C2.35 4 0.7 4 -1 4 C-0.67 2.68 -0.34 1.36 0 0 Z " fill="#FFFFFF" transform="translate(342,228)"/>
<path d="M0 0 C2.875 -0.1875 2.875 -0.1875 6 0 C8.13586678 3.20380017 8.23132175 4.01939967 8.125 7.6875 C8.10695313 8.49574219 8.08890625 9.30398437 8.0703125 10.13671875 C8.03550781 11.05904297 8.03550781 11.05904297 8 12 C4.63861721 12.8403457 2.29612199 13.17718642 -1 12 C-2 11 -2 11 -2.0625 8.4375 C-2.041875 7.633125 -2.02125 6.82875 -2 6 C-0.35 5.34 1.3 4.68 3 4 C1.68 4 0.36 4 -1 4 C-0.67 2.68 -0.34 1.36 0 0 Z " fill="#FEFEFE" transform="translate(552,228)"/>
<path d="M0 0 C0.99 0 1.98 0 3 0 C3.33 2.64 3.66 5.28 4 8 C4.66 8 5.32 8 6 8 C6.33 5.69 6.66 3.38 7 1 C8.32 1 9.64 1 11 1 C11 4.63 11 8.26 11 12 C5.10714286 13.17857143 5.10714286 13.17857143 2 12 C0 10 0 10 -0.1953125 7.6171875 C-0.17210937 6.71226562 -0.14890625 5.80734375 -0.125 4.875 C-0.10695313 3.96492187 -0.08890625 3.05484375 -0.0703125 2.1171875 C-0.04710937 1.41851562 -0.02390625 0.71984375 0 0 Z " fill="#FEFEFE" transform="translate(504,228)"/>
<path d="M0 0 C1.91015625 0.23046875 1.91015625 0.23046875 3.91015625 2.23046875 C4.10546875 4.61328125 4.10546875 4.61328125 4.03515625 7.35546875 C4.01710938 8.26554688 3.9990625 9.175625 3.98046875 10.11328125 C3.95726562 10.81195313 3.9340625 11.510625 3.91015625 12.23046875 C2.92015625 12.56046875 1.93015625 12.89046875 0.91015625 13.23046875 C0.58015625 9.93046875 0.25015625 6.63046875 -0.08984375 3.23046875 C-1.07984375 3.72546875 -1.07984375 3.72546875 -2.08984375 4.23046875 C-2.55507438 6.12580217 -2.55507438 6.12580217 -2.71484375 8.29296875 C-2.90046875 10.24203125 -2.90046875 10.24203125 -3.08984375 12.23046875 C-4.40984375 12.23046875 -5.72984375 12.23046875 -7.08984375 12.23046875 C-7.11671654 10.41804823 -7.1361809 8.60551642 -7.15234375 6.79296875 C-7.16394531 5.78363281 -7.17554688 4.77429688 -7.1875 3.734375 C-6.99885005 -1.10260967 -4.21527992 0.08415259 0 0 Z " fill="#FEFEFE" transform="translate(287.08984375,227.76953125)"/>
<path d="M0 0 C1.875 0.1875 1.875 0.1875 4 1 C5.25 3.5625 5.25 3.5625 6 6 C6.598125 5.01 7.19625 4.02 7.8125 3 C8.8953125 1.515 8.8953125 1.515 10 0 C10.99 0 11.98 0 13 0 C12.54554036 1.41791408 12.08625056 2.83428046 11.625 4.25 C11.36976563 5.03890625 11.11453125 5.8278125 10.8515625 6.640625 C10.04826333 8.86627958 9.10288338 10.90931672 8 13 C6.140625 12.7734375 6.140625 12.7734375 4 12 C2.734375 10.0390625 2.734375 10.0390625 1.75 7.625 C1.41484375 6.83351562 1.0796875 6.04203125 0.734375 5.2265625 C0 3 0 3 0 0 Z " fill="#FDFDFD" transform="translate(378,228)"/>
<path d="M0 0 C0.99 0.33 1.98 0.66 3 1 C3 1.66 3 2.32 3 3 C3.99 3.33 4.98 3.66 6 4 C6 4.99 6 5.98 6 7 C5.01 7.33 4.02 7.66 3 8 C3 9.65 3 11.3 3 13 C3.99 13.33 4.98 13.66 6 14 C6 14.99 6 15.98 6 17 C3.625 17.125 3.625 17.125 1 17 C-1.53229508 14.46770492 -1.42944077 13.14172332 -1.75 9.625 C-1.84796875 8.66851562 -1.9459375 7.71203125 -2.046875 6.7265625 C-1.99778678 3.87126439 -1.48085988 2.40354949 0 0 Z " fill="#FDFDFD" transform="translate(543,224)"/>
<path d="M0 0 C0.33 1.32 0.66 2.64 1 4 C-0.65 4 -2.3 4 -4 4 C-4.33 5.32 -4.66 6.64 -5 8 C-3.02 8 -1.04 8 1 8 C1 9.32 1 10.64 1 12 C-4.25490196 13.31372549 -4.25490196 13.31372549 -7.375 12 C-9 10 -9 10 -9.4375 6.5 C-9 3 -9 3 -7.875 1.0625 C-5.214973 -0.44484863 -2.99793795 -0.19986253 0 0 Z " fill="#FEFEFE" transform="translate(479,228)"/>
<path d="M0 0 C0.33 1.32 0.66 2.64 1 4 C-0.65 4 -2.3 4 -4 4 C-4.33 5.32 -4.66 6.64 -5 8 C-3.02 8 -1.04 8 1 8 C1 9.32 1 10.64 1 12 C-4.25490196 13.31372549 -4.25490196 13.31372549 -7.375 12 C-9 10 -9 10 -9.4375 6.5 C-9 3 -9 3 -7.875 1.0625 C-5.214973 -0.44484863 -2.99793795 -0.19986253 0 0 Z " fill="#FEFEFE" transform="translate(223,228)"/>
<path d="M0 0 C0.99 0.33 1.98 0.66 3 1 C3 6.28 3 11.56 3 17 C1.68 17 0.36 17 -1 17 C-1.02684679 14.35409986 -1.04676357 11.70846904 -1.0625 9.0625 C-1.07087891 8.30775391 -1.07925781 7.55300781 -1.08789062 6.77539062 C-1.09652441 4.85005687 -1.05224333 2.92464419 -1 1 C-0.67 0.67 -0.34 0.34 0 0 Z " fill="#FFFFFF" transform="translate(537,223)"/>
<path d="M0 0 C0.99 0 1.98 0 3 0 C3 5.28 3 10.56 3 16 C1.35 16.33 -0.3 16.66 -2 17 C-2 16.01 -2 15.02 -2 14 C-1.34 14 -0.68 14 0 14 C0 9.38 0 4.76 0 0 Z " fill="#FFFFFF" transform="translate(360,228)"/>
<path d="M0 0 C2.64 0 5.28 0 8 0 C8 0.99 8 1.98 8 3 C7.360625 3.165 6.72125 3.33 6.0625 3.5 C3.83880759 4.781786 3.83880759 4.781786 3.51171875 6.9140625 C3.2724022 8.93575155 3.13106972 10.96841939 3 13 C2.01 13 1.02 13 0 13 C0 8.71 0 4.42 0 0 Z " fill="#FFFFFF" transform="translate(252,228)"/>
<path d="M0 0 C0.99 0 1.98 0 3 0 C3 5.94 3 11.88 3 18 C2.01 18 1.02 18 0 18 C0 12.06 0 6.12 0 0 Z " fill="#FFFFFF" transform="translate(446,223)"/>
<path d="M0 0 C2.31 0 4.62 0 7 0 C7.33 0.99 7.66 1.98 8 3 C6.68 3 5.36 3 4 3 C3.67 5.97 3.34 8.94 3 12 C2.01 12.33 1.02 12.66 0 13 C0 8.71 0 4.42 0 0 Z " fill="#FEFEFE" transform="translate(332,228)"/>
<path d="M0 0 C2.31 0 4.62 0 7 0 C7 0.99 7 1.98 7 3 C6.01 3 5.02 3 4 3 C3.67 5.97 3.34 8.94 3 12 C2.01 12.33 1.02 12.66 0 13 C0 8.71 0 4.42 0 0 Z " fill="#FEFEFE" transform="translate(482,228)"/>
<path d="M0 0 C0.99 0 1.98 0 3 0 C3 3.96 3 7.92 3 12 C2.01 12.33 1.02 12.66 0 13 C0 8.71 0 4.42 0 0 Z " fill="#FFFFFF" transform="translate(275,228)"/>
<path d="M0 0 C0.99 0 1.98 0 3 0 C3 0.99 3 1.98 3 3 C2.01 3 1.02 3 0 3 C0 2.01 0 1.02 0 0 Z " fill="#FFFFFF" transform="translate(360,223)"/>
<path d="M0 0 C0.99 0.33 1.98 0.66 3 1 C3 1.66 3 2.32 3 3 C2.01 3 1.02 3 0 3 C0 2.01 0 1.02 0 0 Z " fill="#FFFFFF" transform="translate(275,223)"/>
</svg>
